<svg width="4390" height="849" viewBox="0 0 4390 849" fill="none" xmlns="http://www.w3.org/2000/svg">
<g opacity="0.2">
<path d="M783.518 3.16089V85.9656C783.518 137.629 824.748 179.663 876.098 180.959L877.313 180.982L878.56 180.99H973.567V162.014H878.543C836.542 162.014 802.493 127.966 802.493 85.9656V22.1355H863.592V3.16089H783.518ZM927.421 3.16089H893.494V22.1355H927.421C969.422 22.1355 1003.47 56.1844 1003.47 98.1853V180.99H1022.45V98.1853C1022.45 45.7047 979.901 3.16089 927.421 3.16089Z" fill="white" stroke="#2248C5" stroke-width="5.46394"/>
<path d="M543.559 89.0201H563.965C586.506 89.0201 604.779 70.7473 604.779 48.2067V0.591135H618.383V48.2067C618.383 78.2608 594.02 102.625 563.965 102.625H543.559V89.0201ZM482.339 55.0089C482.339 25.1897 506.323 0.972433 536.053 0.595785L536.757 0.591135H591.174V14.1956H536.757C514.216 14.1956 495.943 32.4683 495.943 55.0089V89.0201H529.954V102.625H482.339V55.0089Z" fill="#68DAFF"/>
<path d="M402.105 317.015V399.819C402.106 451.483 443.335 493.516 494.686 494.812L495.9 494.836L497.147 494.844H592.154V475.868H497.13C455.129 475.868 421.08 441.82 421.08 399.819V335.989H482.179V317.015H402.105ZM546.008 317.015H512.081V335.989H546.008C588.009 335.989 622.058 370.038 622.058 412.039V494.844H641.032V412.039C641.032 359.558 598.488 317.015 546.008 317.015Z" fill="white" stroke="#2248C5" stroke-width="5.46394"/>
<path d="M707.593 598.224H687.186C664.646 598.224 646.373 579.952 646.373 557.411V509.795H632.768V557.411C632.768 587.465 657.132 611.829 687.186 611.829H707.593V598.224ZM768.813 564.213C768.813 534.394 744.828 510.177 715.098 509.8L714.395 509.795H659.977V523.4H714.395C736.936 523.4 755.208 541.673 755.208 564.213V598.224H721.197V611.829H768.813V564.213Z" fill="#68DAFF"/>
<path d="M447.965 116.901V199.706C447.965 251.369 406.736 293.403 355.385 294.699L354.17 294.722L352.923 294.73H257.916V275.754H352.941C394.942 275.754 428.99 241.706 428.99 199.706V135.875H367.892V116.901H447.965ZM304.063 116.901H337.99V135.875H304.063C262.062 135.875 228.013 169.924 228.013 211.925V294.73H209.038V211.925C209.038 159.445 251.582 116.901 304.063 116.901Z" fill="white" stroke="#2248C5" stroke-width="5.46394"/>
<path d="M142.477 398.111H162.884C185.425 398.111 203.697 379.838 203.697 357.298V309.682H217.302V357.298C217.302 387.352 192.938 411.716 162.884 411.716H142.477V398.111ZM81.2572 364.1C81.2572 334.281 105.242 310.063 134.972 309.687L135.675 309.682H190.093V323.287H135.675C113.134 323.287 94.8617 341.559 94.8617 364.1V398.111H128.873V411.716H81.2572V364.1Z" fill="#68DAFF"/>
<path d="M703.666 294.813V212.009C703.665 160.345 662.436 118.312 611.085 117.015L609.871 116.992L608.624 116.984H513.617V135.96H608.641C650.642 135.96 684.691 170.008 684.691 212.009V275.839H623.592V294.813H703.666ZM559.763 294.813H593.69V275.839H559.763C517.762 275.839 483.713 241.79 483.713 199.789V116.984H464.739V199.789C464.739 252.269 507.283 294.813 559.763 294.813Z" fill="#68DAFF" stroke="#2248C5" stroke-width="5.46394"/>
<path d="M398.176 13.6045H418.583C441.124 13.6045 459.397 31.8772 459.397 54.4178V102.033H473.001V54.4178C473.001 24.3637 448.637 4.38244e-07 418.583 0H398.176V13.6045ZM336.956 47.6156C336.956 77.4349 360.941 101.652 390.671 102.029L391.374 102.033H445.792V88.4289H391.374C368.834 88.4289 350.561 70.1562 350.561 47.6156V13.6045H384.572V0H336.956V47.6156Z" fill="white"/>
<path d="M699.014 14.0344H719.421C741.962 14.0344 760.234 32.3071 760.234 54.8477V102.463H773.839V54.8477C773.839 24.7936 749.475 0.429932 719.421 0.429932H699.014V14.0344ZM637.794 48.0455C637.794 77.8648 661.779 102.082 691.509 102.459L692.212 102.463H746.63V88.8589H692.212C669.672 88.8589 651.399 70.5861 651.399 48.0455V14.0344H685.41V0.429932H637.794V48.0455Z" fill="#68DAFF"/>
<path d="M812.739 213.292H833.145C855.686 213.292 873.959 231.565 873.959 254.106V301.721H887.563V254.106C887.563 224.052 863.2 199.688 833.145 199.688H812.739V213.292ZM751.519 247.304C751.519 277.123 775.503 301.34 805.233 301.717L805.937 301.721H860.354V288.117H805.937C783.396 288.117 765.123 269.844 765.123 247.304V213.292H799.134V199.688H751.519V247.304Z" fill="white"/>
<path d="M661.226 494.501V411.696C661.226 360.033 702.456 317.999 753.806 316.703L755.021 316.68L756.268 316.672H851.275V335.647H756.25C714.25 335.647 680.201 369.695 680.201 411.696V475.526H741.299V494.501H661.226ZM805.128 494.501H771.202V475.526H805.128C847.129 475.526 881.178 441.477 881.178 399.477V316.672H900.153V399.477C900.153 451.957 857.609 494.501 805.128 494.501Z" fill="white" stroke="#2248C5" stroke-width="5.46394"/>
<path d="M966.713 213.29H946.307C923.766 213.29 905.493 231.563 905.493 254.104V301.719H891.889V254.104C891.889 224.05 916.253 199.686 946.307 199.686H966.713V213.29ZM1027.93 247.302C1027.93 277.121 1003.95 301.338 974.219 301.715L973.516 301.719H919.098V288.115H973.516C996.056 288.115 1014.33 269.842 1014.33 247.302V213.29H980.318V199.686H1027.93V247.302Z" fill="#68DAFF"/>
<path d="M632.673 732.242V649.438C632.673 597.774 591.444 555.741 540.093 554.444L538.878 554.421L537.631 554.413H442.625V573.389H537.649C579.65 573.389 613.699 607.437 613.699 649.438V713.268H552.6V732.242H632.673ZM488.771 732.242H522.698V713.268H488.771C446.77 713.268 412.721 679.219 412.721 637.218V554.413H393.747V637.218C393.747 689.698 436.29 732.242 488.771 732.242Z" fill="#68DAFF" stroke="#2248C5" stroke-width="5.46394"/>
<path d="M327.184 451.032H347.591C370.132 451.032 388.404 469.305 388.404 491.845V539.461H402.009V491.845C402.009 461.791 377.645 437.427 347.591 437.427H327.184V451.032ZM265.964 485.043C265.964 514.862 289.949 539.08 319.679 539.456L320.382 539.461H374.8V525.856H320.382C297.841 525.856 279.569 507.584 279.569 485.043V451.032H313.58V437.427H265.964V485.043Z" fill="white"/>
<path d="M2.73218 609.095V526.291C2.73226 474.627 43.9617 432.594 95.3123 431.298L96.5271 431.274L97.7742 431.266H192.781V450.242H97.7566C55.7557 450.242 21.7069 484.29 21.7068 526.291V590.121H82.8054V609.095H2.73218ZM146.635 609.095H112.708V590.121H146.635C188.635 590.121 222.684 556.072 222.684 514.071V431.266H241.659V514.071C241.659 566.552 199.115 609.095 146.635 609.095Z" fill="#68DAFF" stroke="#2248C5" stroke-width="5.46394"/>
<path d="M308.221 327.887H287.814C265.273 327.887 247.001 346.159 247.001 368.7V416.316H233.396V368.7C233.396 338.646 257.76 314.282 287.814 314.282H308.221V327.887ZM369.441 361.898C369.441 391.717 345.456 415.934 315.726 416.311L315.023 416.316H260.605V402.711H315.023C337.564 402.711 355.836 384.438 355.836 361.898V327.887H321.825V314.282H369.441V361.898Z" fill="white"/>
<path d="M1623.87 31.5732V114.378C1623.87 166.041 1665.1 208.075 1716.45 209.371L1717.67 209.395L1718.91 209.402H1813.92V190.427H1718.9C1676.9 190.427 1642.85 156.379 1642.85 114.378V50.5479H1703.95V31.5732H1623.87ZM1767.77 31.5732H1733.85V50.5479H1767.77C1809.78 50.5479 1843.82 84.5968 1843.82 126.598V209.402H1862.8V126.598C1862.8 74.117 1820.26 31.5732 1767.77 31.5732Z" fill="white" stroke="#2248C5" stroke-width="5.46394"/>
<path d="M1383.91 117.432H1404.32C1426.86 117.432 1445.13 99.1597 1445.13 76.6191V29.0035H1458.74V76.6191C1458.74 106.673 1434.37 131.037 1404.32 131.037H1383.91V117.432ZM1322.69 83.4213C1322.69 53.602 1346.68 29.3848 1376.41 29.0081L1377.11 29.0035H1431.53V42.6079H1377.11C1354.57 42.6079 1336.3 60.8807 1336.3 83.4213V117.432H1370.31V131.037H1322.69V83.4213Z" fill="#68DAFF"/>
<path d="M1242.46 345.427V428.232C1242.46 479.895 1283.69 521.929 1335.04 523.225L1336.25 523.249L1337.5 523.256H1432.51V504.281H1337.48C1295.48 504.281 1261.43 470.233 1261.43 428.232V364.402H1322.53V345.427H1242.46ZM1386.36 345.427H1352.43V364.402H1386.36C1428.36 364.402 1462.41 398.451 1462.41 440.452V523.256H1481.39V440.452C1481.39 387.971 1438.84 345.427 1386.36 345.427Z" fill="white" stroke="#2248C5" stroke-width="5.46394"/>
<path d="M1547.95 626.637H1527.54C1505 626.637 1486.73 608.364 1486.73 585.823V538.208H1473.12V585.823C1473.12 615.878 1497.49 640.241 1527.54 640.241H1547.95V626.637ZM1609.17 592.626C1609.17 562.806 1585.18 538.589 1555.45 538.212L1554.75 538.208H1500.33V551.812H1554.75C1577.29 551.812 1595.56 570.085 1595.56 592.626V626.637H1561.55V640.241H1609.17V592.626Z" fill="#68DAFF"/>
<path d="M1288.32 145.313V228.118C1288.32 279.782 1247.09 321.815 1195.74 323.111L1194.52 323.135L1193.28 323.143H1098.27V304.167H1193.29C1235.3 304.167 1269.34 270.119 1269.34 228.118V164.288H1208.25V145.313H1288.32ZM1144.42 145.313H1178.34V164.288H1144.42C1102.42 164.288 1068.37 198.337 1068.37 240.338V323.143H1049.39V240.338C1049.39 187.857 1091.94 145.313 1144.42 145.313Z" fill="white" stroke="#2248C5" stroke-width="5.46394"/>
<path d="M982.831 426.524H1003.24C1025.78 426.524 1044.05 408.251 1044.05 385.71V338.095H1057.66V385.71C1057.66 415.764 1033.29 440.128 1003.24 440.128H982.831V426.524ZM921.611 392.513C921.611 362.693 945.595 338.476 975.325 338.099L976.029 338.095H1030.45V351.699H976.029C953.488 351.699 935.215 369.972 935.215 392.513V426.524H969.227V440.128H921.611V392.513Z" fill="#68DAFF"/>
<path d="M1544.02 323.226V240.421C1544.02 188.758 1502.79 146.724 1451.44 145.428L1450.22 145.405L1448.98 145.397H1353.97V164.372H1448.99C1491 164.372 1525.04 198.42 1525.04 240.421V304.251H1463.95V323.226H1544.02ZM1400.12 323.226H1434.04V304.251H1400.12C1358.12 304.251 1324.07 270.202 1324.07 228.201V145.397H1305.09V228.201C1305.09 280.682 1347.64 323.226 1400.12 323.226Z" fill="#68DAFF" stroke="#2248C5" stroke-width="5.46394"/>
<path d="M1238.53 42.017H1258.94C1281.48 42.017 1299.75 60.2898 1299.75 82.8304V130.446H1313.35V82.8304C1313.35 52.7763 1288.99 28.4126 1258.94 28.4126H1238.53V42.017ZM1177.31 76.0282C1177.31 105.847 1201.29 130.065 1231.02 130.441L1231.73 130.446H1286.15V116.842H1231.73C1209.19 116.842 1190.91 98.5688 1190.91 76.0282V42.017H1224.93V28.4126H1177.31V76.0282Z" fill="white"/>
<path d="M1539.37 42.4467H1559.77C1582.32 42.4467 1600.59 60.7195 1600.59 83.2601V130.876H1614.19V83.2601C1614.19 53.206 1589.83 28.8423 1559.77 28.8423H1539.37V42.4467ZM1478.15 76.4579C1478.15 106.277 1502.13 130.494 1531.86 130.871L1532.57 130.876H1586.98V117.271H1532.57C1510.03 117.271 1491.75 98.9984 1491.75 76.4579V42.4467H1525.76V28.8423H1478.15V76.4579Z" fill="#68DAFF"/>
<path d="M1653.09 241.705H1673.5C1696.04 241.705 1714.31 259.977 1714.31 282.518V330.133H1727.92V282.518C1727.92 252.464 1703.55 228.1 1673.5 228.1H1653.09V241.705ZM1591.87 275.716C1591.87 305.535 1615.86 329.752 1645.59 330.129L1646.29 330.133H1700.71V316.529H1646.29C1623.75 316.529 1605.48 298.256 1605.48 275.716V241.705H1639.49V228.1H1591.87V275.716Z" fill="white"/>
<path d="M1501.58 522.914V440.109C1501.58 388.446 1542.81 346.412 1594.16 345.116L1595.37 345.092L1596.62 345.084H1691.63V364.06H1596.6C1554.6 364.06 1520.55 398.108 1520.55 440.109V503.939H1581.65V522.914H1501.58ZM1645.48 522.914H1611.56V503.939H1645.48C1687.48 503.939 1721.53 469.89 1721.53 427.889V345.084H1740.51V427.889C1740.51 480.37 1697.96 522.914 1645.48 522.914Z" fill="white" stroke="#2248C5" stroke-width="5.46394"/>
<path d="M1807.07 241.703H1786.66C1764.12 241.703 1745.85 259.976 1745.85 282.516V330.132H1732.24V282.516C1732.24 252.462 1756.61 228.098 1786.66 228.098H1807.07V241.703ZM1868.29 275.714C1868.29 305.533 1844.3 329.75 1814.57 330.127L1813.87 330.132H1759.45V316.527H1813.87C1836.41 316.527 1854.68 298.255 1854.68 275.714V241.703H1820.67V228.098H1868.29V275.714Z" fill="#68DAFF"/>
<path d="M1473.03 760.655V677.85C1473.03 626.187 1431.8 584.153 1380.45 582.857L1379.23 582.833L1377.99 582.826H1282.98V601.801H1378C1420 601.801 1454.05 635.849 1454.05 677.85V741.68H1392.95V760.655H1473.03ZM1329.12 760.655H1363.05V741.68H1329.12C1287.12 741.68 1253.07 707.631 1253.07 665.63V582.826H1234.1V665.63C1234.1 718.111 1276.64 760.655 1329.12 760.655Z" fill="#68DAFF" stroke="#2248C5" stroke-width="5.46394"/>
<path d="M1167.54 479.445H1187.94C1210.49 479.445 1228.76 497.717 1228.76 520.258V567.873H1242.36V520.258C1242.36 490.204 1218 465.84 1187.94 465.84H1167.54V479.445ZM1106.32 513.456C1106.32 543.275 1130.3 567.492 1160.03 567.869L1160.74 567.873H1215.15V554.269H1160.74C1138.2 554.269 1119.92 535.996 1119.92 513.456V479.445H1153.93V465.84H1106.32V513.456Z" fill="white"/>
<path d="M843.086 637.508V554.703C843.086 503.04 884.316 461.006 935.666 459.71L936.881 459.687L938.128 459.679H1033.13V478.654H938.11C896.109 478.654 862.061 512.702 862.061 554.703V618.533H923.159V637.508H843.086ZM986.988 637.508H953.062V618.533H986.988C1028.99 618.533 1063.04 584.484 1063.04 542.483V459.679H1082.01V542.483C1082.01 594.964 1039.47 637.508 986.988 637.508Z" fill="#68DAFF" stroke="#2248C5" stroke-width="5.46394"/>
<path d="M1148.57 356.299H1128.17C1105.63 356.299 1087.35 374.572 1087.35 397.112V444.728H1073.75V397.112C1073.75 367.058 1098.11 342.695 1128.17 342.695H1148.57V356.299ZM1209.79 390.31C1209.79 420.129 1185.81 444.347 1156.08 444.723L1155.38 444.728H1100.96V431.124H1155.38C1177.92 431.124 1196.19 412.851 1196.19 390.31V356.299H1162.18V342.695H1209.79V390.31Z" fill="white"/>
<path d="M2464.23 59.9858V142.791C2464.23 194.454 2505.46 236.487 2556.81 237.784L2558.02 237.807L2559.27 237.815H2654.27V218.839H2559.25C2517.25 218.839 2483.2 184.791 2483.2 142.791V78.9604H2544.3V59.9858H2464.23ZM2608.13 59.9858H2574.2V78.9604H2608.13C2650.13 78.9605 2684.18 113.009 2684.18 155.01V237.815H2703.15V155.01C2703.15 102.53 2660.61 59.9858 2608.13 59.9858Z" fill="white" stroke="#2248C5" stroke-width="5.46394"/>
<path d="M2224.27 145.845H2244.67C2267.21 145.845 2285.49 127.572 2285.49 105.032V57.4161H2299.09V105.032C2299.09 135.086 2274.73 159.449 2244.67 159.449H2224.27V145.845ZM2163.05 111.834C2163.05 82.0146 2187.03 57.7974 2216.76 57.4207L2217.46 57.4161H2271.88V71.0205H2217.46C2194.92 71.0205 2176.65 89.2933 2176.65 111.834V145.845H2210.66V159.449H2163.05V111.834Z" fill="#68DAFF"/>
<path d="M2082.81 373.84V456.644C2082.81 508.308 2124.04 550.341 2175.39 551.637L2176.61 551.661L2177.85 551.669H2272.86V532.693H2177.84C2135.84 532.693 2101.79 498.645 2101.79 456.644V392.814H2162.89V373.84H2082.81ZM2226.72 373.84H2192.79V392.814H2226.72C2268.72 392.814 2302.77 426.863 2302.77 468.864V551.669H2321.74V468.864C2321.74 416.383 2279.2 373.84 2226.72 373.84Z" fill="white" stroke="#2248C5" stroke-width="5.46394"/>
<path d="M2388.3 655.049H2367.89C2345.35 655.049 2327.08 636.777 2327.08 614.236V566.62H2313.48V614.236C2313.48 644.29 2337.84 668.654 2367.89 668.654H2388.3V655.049ZM2449.52 621.038C2449.52 591.219 2425.54 567.002 2395.81 566.625L2395.1 566.62H2340.68V580.225H2395.1C2417.64 580.225 2435.92 598.498 2435.92 621.038V655.049H2401.9V668.654H2449.52V621.038Z" fill="#68DAFF"/>
<path d="M2128.67 173.726V256.531C2128.67 308.194 2087.44 350.228 2036.09 351.524L2034.88 351.547L2033.63 351.555H1938.62V332.58H2033.65C2075.65 332.58 2109.7 298.532 2109.7 256.531V192.701H2048.6V173.726H2128.67ZM1984.77 173.726H2018.7V192.701H1984.77C1942.77 192.701 1908.72 226.75 1908.72 268.75V351.555H1889.75V268.75C1889.75 216.27 1932.29 173.726 1984.77 173.726Z" fill="white" stroke="#2248C5" stroke-width="5.46394"/>
<path d="M1823.18 454.936H1843.59C1866.13 454.936 1884.4 436.664 1884.4 414.123V366.507H1898.01V414.123C1898.01 444.177 1873.65 468.541 1843.59 468.541H1823.18V454.936ZM1761.96 420.925C1761.96 391.106 1785.95 366.889 1815.68 366.512L1816.38 366.507H1870.8V380.112H1816.38C1793.84 380.112 1775.57 398.385 1775.57 420.925V454.936H1809.58V468.541H1761.96V420.925Z" fill="#68DAFF"/>
<path d="M2384.37 351.638V268.834C2384.37 217.17 2343.14 175.137 2291.79 173.841L2290.58 173.817L2289.33 173.809H2194.32V192.785H2289.35C2331.35 192.785 2365.4 226.833 2365.4 268.834V332.664H2304.3V351.638H2384.37ZM2240.47 351.638H2274.4V332.664H2240.47C2198.47 332.664 2164.42 298.615 2164.42 256.614V173.809H2145.45V256.614C2145.45 309.095 2187.99 351.638 2240.47 351.638Z" fill="#68DAFF" stroke="#2248C5" stroke-width="5.46394"/>
<path d="M2078.88 70.4296H2099.29C2121.83 70.4296 2140.1 88.7024 2140.1 111.243V158.859H2153.71V111.243C2153.71 81.1889 2129.34 56.8252 2099.29 56.8252H2078.88V70.4296ZM2017.66 104.441C2017.66 134.26 2041.65 158.477 2071.38 158.854L2072.08 158.859H2126.5V145.254H2072.08C2049.54 145.254 2031.27 126.981 2031.27 104.441V70.4296H2065.28V56.8252H2017.66V104.441Z" fill="white"/>
<path d="M2379.72 70.8593H2400.13C2422.67 70.8593 2440.94 89.1321 2440.94 111.673V159.288H2454.55V111.673C2454.55 81.6186 2430.18 57.2549 2400.13 57.2549H2379.72V70.8593ZM2318.5 104.87C2318.5 134.69 2342.49 158.907 2372.22 159.284L2372.92 159.288H2427.34V145.684H2372.92C2350.38 145.684 2332.11 127.411 2332.11 104.87V70.8593H2366.12V57.2549H2318.5V104.87Z" fill="#68DAFF"/>
<path d="M2493.45 270.117H2513.85C2536.39 270.117 2554.67 288.39 2554.67 310.93V358.546H2568.27V310.93C2568.27 280.876 2543.91 256.513 2513.85 256.513H2493.45V270.117ZM2432.23 304.128C2432.23 333.948 2456.21 358.165 2485.94 358.541L2486.64 358.546H2541.06V344.942H2486.64C2464.1 344.942 2445.83 326.669 2445.83 304.128V270.117H2479.84V256.513H2432.23V304.128Z" fill="white"/>
<path d="M2341.93 551.326V468.521C2341.93 416.858 2383.16 374.824 2434.51 373.528L2435.73 373.505L2436.98 373.497H2531.98V392.472H2436.96C2394.96 392.472 2360.91 426.52 2360.91 468.521V532.351H2422.01V551.326H2341.93ZM2485.84 551.326H2451.91V532.351H2485.84C2527.84 532.351 2561.89 498.302 2561.89 456.302V373.497H2580.86V456.302C2580.86 508.782 2538.32 551.326 2485.84 551.326Z" fill="white" stroke="#2248C5" stroke-width="5.46394"/>
<path d="M2647.42 270.115H2627.01C2604.47 270.115 2586.2 288.388 2586.2 310.929V358.544H2572.6V310.929C2572.6 280.875 2596.96 256.511 2627.01 256.511H2647.42V270.115ZM2708.64 304.127C2708.64 333.946 2684.66 358.163 2654.93 358.54L2654.22 358.544H2599.81V344.94H2654.22C2676.76 344.94 2695.04 326.667 2695.04 304.127V270.115H2661.03V256.511H2708.64V304.127Z" fill="#68DAFF"/>
<path d="M2313.38 789.067V706.263C2313.38 654.599 2272.15 612.566 2220.8 611.27L2219.59 611.246L2218.34 611.238H2123.33V630.214H2218.36C2260.36 630.214 2294.41 664.262 2294.41 706.263V770.093H2233.31V789.067H2313.38ZM2169.48 789.067H2203.41V770.093H2169.48C2127.48 770.093 2093.43 736.044 2093.43 694.043V611.238H2074.45V694.043C2074.45 746.524 2117 789.067 2169.48 789.067Z" fill="#68DAFF" stroke="#2248C5" stroke-width="5.46394"/>
<path d="M2007.89 507.857H2028.3C2050.84 507.857 2069.11 526.13 2069.11 548.67V596.286H2082.72V548.67C2082.72 518.616 2058.35 494.253 2028.3 494.253H2007.89V507.857ZM1946.67 541.868C1946.67 571.688 1970.66 595.905 2000.39 596.281L2001.09 596.286H2055.51V582.682H2001.09C1978.55 582.682 1960.28 564.409 1960.28 541.868V507.857H1994.29V494.253H1946.67V541.868Z" fill="white"/>
<path d="M1683.44 665.92V583.116C1683.44 531.452 1724.67 489.419 1776.02 488.123L1777.23 488.099L1778.48 488.091H1873.49V507.067H1778.46C1736.46 507.067 1702.41 541.115 1702.41 583.116V646.946H1763.51V665.92H1683.44ZM1827.34 665.92H1793.42V646.946H1827.34C1869.34 646.946 1903.39 612.897 1903.39 570.896V488.091H1922.37V570.896C1922.37 623.377 1879.82 665.92 1827.34 665.92Z" fill="#68DAFF" stroke="#2248C5" stroke-width="5.46394"/>
<path d="M1988.93 384.712H1968.52C1945.98 384.712 1927.71 402.984 1927.71 425.525V473.141H1914.1V425.525C1914.1 395.471 1938.47 371.107 1968.52 371.107H1988.93V384.712ZM2050.15 418.723C2050.15 448.542 2026.16 472.759 1996.43 473.136L1995.73 473.141H1941.31V459.536H1995.73C2018.27 459.536 2036.54 441.263 2036.54 418.723V384.712H2002.53V371.107H2050.15V418.723Z" fill="white"/>
<path d="M3304.58 88.3984V171.203C3304.58 222.866 3345.81 264.9 3397.16 266.196L3398.37 266.22L3399.62 266.228H3494.63V247.252H3399.6C3357.6 247.252 3323.55 213.204 3323.55 171.203V107.373H3384.65V88.3984H3304.58ZM3448.48 88.3984H3414.56V107.373H3448.48C3490.48 107.373 3524.53 141.422 3524.53 183.423V266.228H3543.51V183.423C3543.51 130.942 3500.96 88.3984 3448.48 88.3984Z" fill="white" stroke="#2248C5" stroke-width="5.46394"/>
<path d="M3064.62 174.258H3085.03C3107.57 174.258 3125.84 155.985 3125.84 133.444V85.8287H3139.44V133.444C3139.44 163.498 3115.08 187.862 3085.03 187.862H3064.62V174.258ZM3003.4 140.246C3003.4 110.427 3027.38 86.21 3057.11 85.8333L3057.82 85.8287H3112.24V99.4331H3057.82C3035.28 99.4331 3017 117.706 3017 140.246V174.258H3051.02V187.862H3003.4V140.246Z" fill="#68DAFF"/>
<path d="M2923.17 402.252V485.057C2923.17 536.72 2964.4 578.754 3015.75 580.05L3016.96 580.073L3018.21 580.081H3113.22V561.106H3018.19C2976.19 561.106 2942.14 527.058 2942.14 485.057V421.227H3003.24V402.252H2923.17ZM3067.07 402.252H3033.14V421.227H3067.07C3109.07 421.227 3143.12 455.276 3143.12 497.277V580.081H3162.09V497.277C3162.09 444.796 3119.55 402.252 3067.07 402.252Z" fill="white" stroke="#2248C5" stroke-width="5.46394"/>
<path d="M3228.65 683.462H3208.25C3185.71 683.462 3167.43 665.189 3167.43 642.649V595.033H3153.83V642.649C3153.83 672.703 3178.19 697.066 3208.25 697.066H3228.65V683.462ZM3289.87 649.451C3289.87 619.632 3265.89 595.414 3236.16 595.038L3235.46 595.033H3181.04V608.637H3235.46C3258 608.637 3276.27 626.91 3276.27 649.451V683.462H3242.26V697.066H3289.87V649.451Z" fill="#68DAFF"/>
<path d="M2969.03 202.138V284.943C2969.03 336.606 2927.8 378.64 2876.45 379.936L2875.23 379.96L2873.98 379.968H2778.98V360.992H2874C2916 360.992 2950.05 326.944 2950.05 284.943V221.113H2888.95V202.138H2969.03ZM2825.12 202.138H2859.05V221.113H2825.12C2783.12 221.113 2749.07 255.162 2749.07 297.163V379.968H2730.1V297.163C2730.1 244.682 2772.64 202.138 2825.12 202.138Z" fill="white" stroke="#2248C5" stroke-width="5.46394"/>
<path d="M2663.54 483.349H2683.94C2706.49 483.349 2724.76 465.076 2724.76 442.535V394.92H2738.36V442.535C2738.36 472.589 2714 496.953 2683.94 496.953H2663.54V483.349ZM2602.32 449.338C2602.32 419.518 2626.3 395.301 2656.03 394.924L2656.74 394.92H2711.15V408.524H2656.74C2634.2 408.524 2615.92 426.797 2615.92 449.338V483.349H2649.93V496.953H2602.32V449.338Z" fill="#68DAFF"/>
<path d="M3224.73 380.051V297.246C3224.73 245.583 3183.5 203.549 3132.15 202.253L3130.93 202.229L3129.68 202.222H3034.68V221.197H3129.7C3171.7 221.197 3205.75 255.245 3205.75 297.246V361.076H3144.65V380.051H3224.73ZM3080.82 380.051H3114.75V361.076H3080.82C3038.82 361.076 3004.77 327.027 3004.77 285.026V202.222H2985.8V285.026C2985.8 337.507 3028.34 380.051 3080.82 380.051Z" fill="#68DAFF" stroke="#2248C5" stroke-width="5.46394"/>
<path d="M2919.24 98.8422H2939.64C2962.18 98.8422 2980.46 117.115 2980.46 139.656V187.271H2994.06V139.656C2994.06 109.601 2969.7 85.2378 2939.64 85.2378H2919.24V98.8422ZM2858.02 132.853C2858.02 162.673 2882 186.89 2911.73 187.267L2912.44 187.271H2966.85V173.667H2912.44C2889.89 173.667 2871.62 155.394 2871.62 132.853V98.8422H2905.63V85.2378H2858.02V132.853Z" fill="white"/>
<path d="M3220.08 99.2719H3240.48C3263.02 99.2719 3281.3 117.545 3281.3 140.085V187.701H3294.9V140.085C3294.9 110.031 3270.54 85.6675 3240.48 85.6675H3220.08V99.2719ZM3158.86 133.283C3158.86 163.102 3182.84 187.32 3212.57 187.696L3213.27 187.701H3267.69V174.096H3213.27C3190.73 174.096 3172.46 155.824 3172.46 133.283V99.2719H3206.47V85.6675H3158.86V133.283Z" fill="#68DAFF"/>
<path d="M3333.8 298.53H3354.21C3376.75 298.53 3395.02 316.803 3395.02 339.344V386.959H3408.62V339.344C3408.62 309.289 3384.26 284.926 3354.21 284.926H3333.8V298.53ZM3272.58 332.541C3272.58 362.361 3296.56 386.578 3326.29 386.955L3327 386.959H3381.42V373.355H3327C3304.46 373.355 3286.18 355.082 3286.18 332.541V298.53H3320.2V284.926H3272.58V332.541Z" fill="white"/>
<path d="M3182.29 579.739V496.934C3182.29 445.27 3223.52 403.237 3274.87 401.941L3276.08 401.917L3277.33 401.909H3372.34V420.885H3277.31C3235.31 420.885 3201.26 454.933 3201.26 496.934V560.764H3262.36V579.739H3182.29ZM3326.19 579.739H3292.26V560.764H3326.19C3368.19 560.764 3402.24 526.715 3402.24 484.714V401.909H3421.21V484.714C3421.21 537.195 3378.67 579.739 3326.19 579.739Z" fill="white" stroke="#2248C5" stroke-width="5.46394"/>
<path d="M3487.77 298.528H3467.37C3444.83 298.528 3426.55 316.801 3426.55 339.341V386.957H3412.95V339.341C3412.95 309.287 3437.31 284.924 3467.37 284.924H3487.77V298.528ZM3548.99 332.539C3548.99 362.358 3525.01 386.576 3495.28 386.952L3494.58 386.957H3440.16V373.353H3494.58C3517.12 373.353 3535.39 355.08 3535.39 332.539V298.528H3501.38V284.924H3548.99V332.539Z" fill="#68DAFF"/>
<path d="M3153.73 817.48V734.675C3153.73 683.012 3112.5 640.978 3061.15 639.682L3059.94 639.658L3058.69 639.651H2963.69V658.626H3058.71C3100.71 658.626 3134.76 692.674 3134.76 734.675V798.505H3073.66V817.48H3153.73ZM3009.83 817.48H3043.76V798.505H3009.83C2967.83 798.505 2933.78 764.456 2933.78 722.455V639.651H2914.81V722.455C2914.81 774.936 2957.35 817.48 3009.83 817.48Z" fill="#68DAFF" stroke="#2248C5" stroke-width="5.46394"/>
<path d="M2848.25 536.269H2868.65C2891.19 536.269 2909.47 554.542 2909.47 577.083V624.698H2923.07V577.083C2923.07 547.029 2898.71 522.665 2868.65 522.665H2848.25V536.269ZM2787.03 570.281C2787.03 600.1 2811.01 624.317 2840.74 624.694L2841.44 624.698H2895.86V611.094H2841.44C2818.9 611.094 2800.63 592.821 2800.63 570.281V536.269H2834.64V522.665H2787.03V570.281Z" fill="white"/>
<path d="M2523.79 694.333V611.528C2523.79 559.865 2565.02 517.831 2616.37 516.535L2617.59 516.512L2618.84 516.504H2713.84V535.479H2618.82C2576.82 535.479 2542.77 569.527 2542.77 611.528V675.358H2603.87V694.333H2523.79ZM2667.7 694.333H2633.77V675.358H2667.7C2709.7 675.358 2743.75 641.309 2743.75 599.309V516.504H2762.72V599.309C2762.72 651.789 2720.18 694.333 2667.7 694.333Z" fill="#68DAFF" stroke="#2248C5" stroke-width="5.46394"/>
<path d="M2829.28 413.124H2808.87C2786.33 413.124 2768.06 431.397 2768.06 453.938V501.553H2754.46V453.938C2754.46 423.883 2778.82 399.52 2808.87 399.52H2829.28V413.124ZM2890.5 447.135C2890.5 476.955 2866.52 501.172 2836.79 501.549L2836.08 501.553H2781.67V487.949H2836.08C2858.62 487.949 2876.9 469.676 2876.9 447.135V413.124H2842.89V399.52H2890.5V447.135Z" fill="white"/>
<path d="M4144.93 116.811V199.615C4144.93 251.279 4186.16 293.312 4237.51 294.609L4238.73 294.632L4239.97 294.64H4334.98V275.664H4239.96C4197.96 275.664 4163.91 241.616 4163.91 199.615V135.785H4225.01V116.811H4144.93ZM4288.84 116.811H4254.91V135.785H4288.84C4330.84 135.785 4364.88 169.834 4364.88 211.835V294.64H4383.86V211.835C4383.86 159.355 4341.32 116.811 4288.84 116.811Z" fill="white" stroke="#2248C5" stroke-width="5.46394"/>
<path d="M3904.97 202.67H3925.38C3947.92 202.67 3966.19 184.397 3966.19 161.857V114.241H3979.8V161.857C3979.8 191.911 3955.43 216.274 3925.38 216.274H3904.97V202.67ZM3843.75 168.659C3843.75 138.84 3867.74 114.622 3897.47 114.246L3898.17 114.241H3952.59V127.845H3898.17C3875.63 127.845 3857.36 146.118 3857.36 168.659V202.67H3891.37V216.274H3843.75V168.659Z" fill="#68DAFF"/>
<path d="M3763.52 430.665V513.469C3763.52 565.133 3804.75 607.166 3856.1 608.463L3857.32 608.486L3858.56 608.494H3953.57V589.518H3858.54C3816.54 589.518 3782.49 555.47 3782.49 513.469V449.639H3843.59V430.665H3763.52ZM3907.42 430.665H3873.5V449.639H3907.42C3949.42 449.639 3983.47 483.688 3983.47 525.689V608.494H4002.45V525.689C4002.45 473.209 3959.9 430.665 3907.42 430.665Z" fill="white" stroke="#2248C5" stroke-width="5.46394"/>
<path d="M4069.01 711.874H4048.6C4026.06 711.874 4007.79 693.602 4007.79 671.061V623.445H3994.18V671.061C3994.18 701.115 4018.55 725.479 4048.6 725.479H4069.01V711.874ZM4130.23 677.863C4130.23 648.044 4106.24 623.827 4076.51 623.45L4075.81 623.445H4021.39V637.05H4075.81C4098.35 637.05 4116.62 655.323 4116.62 677.863V711.874H4082.61V725.479H4130.23V677.863Z" fill="#68DAFF"/>
<path d="M3809.38 230.551V313.355C3809.38 365.019 3768.15 407.052 3716.8 408.349L3715.58 408.372L3714.34 408.38H3619.33V389.404H3714.36C3756.36 389.404 3790.4 355.356 3790.41 313.355V249.525H3729.31V230.551H3809.38ZM3665.48 230.551H3699.4V249.525H3665.48C3623.48 249.525 3589.43 283.574 3589.43 325.575V408.38H3570.45V325.575C3570.45 273.095 3613 230.551 3665.48 230.551Z" fill="white" stroke="#2248C5" stroke-width="5.46394"/>
<path d="M3503.89 511.761H3524.3C3546.84 511.761 3565.11 493.488 3565.11 470.948V423.332H3578.72V470.948C3578.72 501.002 3554.35 525.365 3524.3 525.365H3503.89V511.761ZM3442.67 477.75C3442.67 447.931 3466.66 423.713 3496.39 423.337L3497.09 423.332H3551.51V436.937H3497.09C3474.55 436.937 3456.28 455.209 3456.28 477.75V511.761H3490.29V525.365H3442.67V477.75Z" fill="#68DAFF"/>
<path d="M4065.08 408.463V325.659C4065.08 273.995 4023.85 231.962 3972.5 230.666L3971.29 230.642L3970.04 230.634H3875.03V249.61H3970.06C4012.06 249.61 4046.11 283.658 4046.11 325.659V389.489H3985.01V408.463H4065.08ZM3921.18 408.463H3955.1V389.489H3921.18C3879.18 389.489 3845.13 355.44 3845.13 313.439V230.634H3826.15V313.439C3826.15 365.92 3868.7 408.463 3921.18 408.463Z" fill="#68DAFF" stroke="#2248C5" stroke-width="5.46394"/>
<path d="M3759.59 127.255H3780C3802.54 127.255 3820.81 145.527 3820.81 168.068V215.684H3834.42V168.068C3834.42 138.014 3810.05 113.65 3780 113.65H3759.59V127.255ZM3698.37 161.266C3698.37 191.085 3722.36 215.302 3752.09 215.679L3752.79 215.684H3807.21V202.079H3752.79C3730.25 202.079 3711.98 183.806 3711.98 161.266V127.255H3745.99V113.65H3698.37V161.266Z" fill="white"/>
<path d="M4060.43 127.684H4080.84C4103.38 127.684 4121.65 145.957 4121.65 168.498V216.113H4135.25V168.498C4135.25 138.444 4110.89 114.08 4080.84 114.08H4060.43V127.684ZM3999.21 161.695C3999.21 191.515 4023.19 215.732 4052.92 216.109L4053.63 216.113H4108.04V202.509H4053.63C4031.09 202.509 4012.81 184.236 4012.81 161.695V127.684H4046.82V114.08H3999.21V161.695Z" fill="#68DAFF"/>
<path d="M4174.15 326.942H4194.56C4217.1 326.942 4235.37 345.215 4235.37 367.755V415.371H4248.98V367.755C4248.98 337.701 4224.61 313.338 4194.56 313.338H4174.15V326.942ZM4112.93 360.953C4112.93 390.773 4136.92 414.99 4166.65 415.366L4167.35 415.371H4221.77V401.767H4167.35C4144.81 401.767 4126.54 383.494 4126.54 360.953V326.942H4160.55V313.338H4112.93V360.953Z" fill="white"/>
<path d="M4022.64 608.151V525.346C4022.64 473.683 4063.87 431.649 4115.22 430.353L4116.44 430.33L4117.68 430.322H4212.69V449.297H4117.67C4075.66 449.297 4041.62 483.345 4041.62 525.346V589.176H4102.71V608.151H4022.64ZM4166.54 608.151H4132.62V589.176H4166.54C4208.54 589.176 4242.59 555.127 4242.59 513.126V430.322H4261.57V513.126C4261.57 565.607 4219.02 608.151 4166.54 608.151Z" fill="white" stroke="#2248C5" stroke-width="5.46394"/>
<path d="M4328.13 326.94H4307.72C4285.18 326.94 4266.91 345.213 4266.91 367.754V415.369H4253.3V367.754C4253.3 337.7 4277.67 313.336 4307.72 313.336H4328.13V326.94ZM4389.35 360.952C4389.35 390.771 4365.36 414.988 4335.63 415.365L4334.93 415.369H4280.51V401.765H4334.93C4357.47 401.765 4375.74 383.492 4375.74 360.952V326.94H4341.73V313.336H4389.35V360.952Z" fill="#68DAFF"/>
<path d="M3994.09 845.892V763.088C3994.09 711.424 3952.86 669.391 3901.51 668.094L3900.29 668.071L3899.05 668.063H3804.04V687.039H3899.06C3941.06 687.039 3975.11 721.087 3975.11 763.088V826.918H3914.01V845.892H3994.09ZM3850.19 845.892H3884.11V826.918H3850.19C3808.18 826.918 3774.14 792.869 3774.14 750.868V668.063H3755.16V750.868C3755.16 803.349 3797.7 845.892 3850.19 845.892Z" fill="#68DAFF" stroke="#2248C5" stroke-width="5.46394"/>
<path d="M3688.6 564.682H3709.01C3731.55 564.682 3749.82 582.955 3749.82 605.495V653.111H3763.42V605.495C3763.42 575.441 3739.06 551.077 3709.01 551.077H3688.6V564.682ZM3627.38 598.693C3627.38 628.512 3651.36 652.729 3681.09 653.106L3681.8 653.111H3736.21V639.506H3681.8C3659.26 639.506 3640.98 621.234 3640.98 598.693V564.682H3674.99V551.077H3627.38V598.693Z" fill="white"/>
<path d="M3364.15 722.745V639.941C3364.15 588.277 3405.38 546.244 3456.73 544.948L3457.94 544.924L3459.19 544.916H3554.2V563.892H3459.17C3417.17 563.892 3383.12 597.94 3383.12 639.941V703.771H3444.22V722.745H3364.15ZM3508.05 722.745H3474.12V703.771H3508.05C3550.05 703.771 3584.1 669.722 3584.1 627.721V544.916H3603.07V627.721C3603.07 680.202 3560.53 722.745 3508.05 722.745Z" fill="#68DAFF" stroke="#2248C5" stroke-width="5.46394"/>
<path d="M3669.64 441.537H3649.23C3626.69 441.537 3608.42 459.809 3608.42 482.35V529.966H3594.81V482.35C3594.81 452.296 3619.17 427.932 3649.23 427.932H3669.64V441.537ZM3730.86 475.548C3730.86 505.367 3706.87 529.584 3677.14 529.961L3676.44 529.966H3622.02V516.361H3676.44C3698.98 516.361 3717.25 498.088 3717.25 475.548V441.537H3683.24V427.932H3730.86V475.548Z" fill="white"/>
</g>
</svg>
