<svg width="178" height="56" viewBox="0 0 178 56" fill="none" xmlns="http://www.w3.org/2000/svg">
<path d="M40.9317 7.44214H29.7685C17.438 7.44214 7.44214 17.438 7.44214 29.7685V55.816H0V29.7685C0 13.3278 13.3278 2.39736e-07 29.7685 0H40.9317V7.44214ZM74.4214 26.0475C74.4214 42.3597 61.301 55.6074 45.0376 55.8135L44.6528 55.816H14.8843V48.3739H44.6528C56.9833 48.3739 66.9792 38.378 66.9792 26.0475V7.44214H48.3739V0H74.4214V26.0475Z" fill="white"/>
<path d="M40.9318 24.5592V14.8844H33.4896V24.5592H24.187V32.0013H33.4896V40.9319H40.9318V32.0013H50.2345V24.5592H40.9318Z" fill="#68DAFF"/>
<path d="M109.089 27.0203H99.2983L97.7288 31.6538H91.0401L100.531 5.42192H107.93L117.421 31.6538H110.658L109.089 27.0203ZM107.444 22.0878L104.193 12.4844L100.98 22.0878H107.444ZM140.56 31.6538L136.562 25.8619L133.199 31.6538H126.286L133.161 21.0041L126.099 10.8028H133.273L137.272 16.5574L140.635 10.8028H147.548L140.56 21.3031L147.735 31.6538H140.56ZM174.557 5.42192V23.2835C174.557 26.0487 173.772 28.1787 172.203 29.6734C170.658 31.1681 168.566 31.9154 165.925 31.9154C163.16 31.9154 160.943 31.1307 159.274 29.5613C157.605 27.9918 156.77 25.7622 156.77 22.8725H163.123C163.123 23.9686 163.347 24.8031 163.795 25.3761C164.244 25.9242 164.891 26.1982 165.738 26.1982C166.511 26.1982 167.109 25.9491 167.532 25.4509C167.956 24.9526 168.167 24.2302 168.167 23.2835V5.42192H174.557Z" fill="white"/>
<path d="M99.7535 40.1361V50.1622H98.109V45.7767H93.3917V50.1622H91.7471V40.1361H93.3917V44.4351H98.109V40.1361H99.7535ZM109.204 45.9931C109.204 46.2912 109.184 46.5605 109.146 46.8009H103.073C103.121 47.4357 103.356 47.9454 103.78 48.3301C104.203 48.7148 104.722 48.9071 105.338 48.9071C106.222 48.9071 106.847 48.5368 107.213 47.7963H108.987C108.747 48.5272 108.309 49.1283 107.675 49.5996C107.049 50.0612 106.27 50.292 105.338 50.292C104.578 50.292 103.895 50.1237 103.289 49.7871C102.693 49.4409 102.222 48.96 101.875 48.3445C101.539 47.7194 101.37 46.9981 101.37 46.1806C101.37 45.3631 101.534 44.6466 101.861 44.0311C102.197 43.406 102.664 42.9251 103.26 42.5885C103.866 42.2519 104.559 42.0836 105.338 42.0836C106.088 42.0836 106.756 42.2471 107.343 42.5741C107.929 42.9011 108.386 43.3627 108.713 43.959C109.04 44.5457 109.204 45.2237 109.204 45.9931ZM107.487 45.4737C107.477 44.8678 107.261 44.3822 106.838 44.0167C106.415 43.6513 105.891 43.4685 105.265 43.4685C104.698 43.4685 104.212 43.6513 103.808 44.0167C103.404 44.3726 103.164 44.8582 103.087 45.4737H107.487ZM110.274 46.1518C110.274 45.3535 110.437 44.6466 110.764 44.0311C111.101 43.4156 111.553 42.9396 112.12 42.603C112.697 42.2567 113.332 42.0836 114.025 42.0836C114.65 42.0836 115.193 42.2087 115.655 42.4587C116.126 42.6991 116.501 43.0021 116.78 43.3675V42.2135H118.439V50.1622H116.78V48.9792C116.501 49.3543 116.121 49.6669 115.64 49.9169C115.159 50.167 114.611 50.292 113.996 50.292C113.313 50.292 112.688 50.1189 112.12 49.7727C111.553 49.4168 111.101 48.9263 110.764 48.3012C110.437 47.6665 110.274 46.95 110.274 46.1518ZM116.78 46.1806C116.78 45.6324 116.665 45.1564 116.434 44.7524C116.213 44.3485 115.919 44.0408 115.554 43.8292C115.188 43.6176 114.794 43.5118 114.371 43.5118C113.948 43.5118 113.553 43.6176 113.188 43.8292C112.822 44.0311 112.524 44.3341 112.294 44.738C112.072 45.1323 111.962 45.6036 111.962 46.1518C111.962 46.6999 112.072 47.1808 112.294 47.5943C112.524 48.0079 112.822 48.3253 113.188 48.5465C113.563 48.758 113.957 48.8638 114.371 48.8638C114.794 48.8638 115.188 48.758 115.554 48.5465C115.919 48.3349 116.213 48.0271 116.434 47.6232C116.665 47.2097 116.78 46.7288 116.78 46.1806ZM122.244 39.487V50.1622H120.599V39.487H122.244ZM126.321 43.5551V47.955C126.321 48.2531 126.389 48.4695 126.523 48.6042C126.668 48.7292 126.908 48.7917 127.245 48.7917H128.255V50.1622H126.956C126.216 50.1622 125.648 49.9891 125.254 49.6428C124.86 49.2966 124.662 48.734 124.662 47.955V43.5551H123.725V42.2135H124.662V40.2371H126.321V42.2135H128.255V43.5551H126.321ZM133.882 42.0836C134.488 42.0836 135.026 42.2135 135.497 42.4731C135.978 42.7328 136.353 43.1175 136.623 43.6272C136.901 44.1369 137.041 44.7524 137.041 45.4737V50.1622H135.411V45.719C135.411 45.0073 135.233 44.4639 134.877 44.0888C134.521 43.7041 134.036 43.5118 133.42 43.5118C132.805 43.5118 132.314 43.7041 131.949 44.0888C131.593 44.4639 131.415 45.0073 131.415 45.719V50.1622H129.77V39.487H131.415V43.1367C131.694 42.8001 132.045 42.5405 132.468 42.3577C132.901 42.175 133.372 42.0836 133.882 42.0836ZM142.338 45.1275C142.338 44.1465 142.564 43.2666 143.016 42.4876C143.478 41.7086 144.098 41.1027 144.877 40.6699C145.665 40.2275 146.526 40.0063 147.459 40.0063C148.527 40.0063 149.474 40.2708 150.301 40.7997C151.138 41.3191 151.744 42.0596 152.119 43.0213H150.142C149.883 42.4924 149.522 42.0981 149.06 41.8384C148.599 41.5787 148.065 41.4489 147.459 41.4489C146.795 41.4489 146.204 41.598 145.685 41.8961C145.165 42.1942 144.757 42.6222 144.458 43.18C144.17 43.7378 144.026 44.387 144.026 45.1275C144.026 45.868 144.17 46.5172 144.458 47.075C144.757 47.6328 145.165 48.0656 145.685 48.3734C146.204 48.6715 146.795 48.8206 147.459 48.8206C148.065 48.8206 148.599 48.6907 149.06 48.4311C149.522 48.1714 149.883 47.7771 150.142 47.2481H152.119C151.744 48.2099 151.138 48.9504 150.301 49.4697C149.474 49.9891 148.527 50.2487 147.459 50.2487C146.517 50.2487 145.656 50.0323 144.877 49.5996C144.098 49.1572 143.478 48.5465 143.016 47.7675C142.564 46.9885 142.338 46.1085 142.338 45.1275ZM153.495 46.1518C153.495 45.3535 153.659 44.6466 153.986 44.0311C154.323 43.4156 154.775 42.9396 155.342 42.603C155.919 42.2567 156.554 42.0836 157.246 42.0836C157.871 42.0836 158.415 42.2087 158.876 42.4587C159.348 42.6991 159.723 43.0021 160.002 43.3675V42.2135H161.661V50.1622H160.002V48.9792C159.723 49.3543 159.343 49.6669 158.862 49.9169C158.381 50.167 157.833 50.292 157.217 50.292C156.535 50.292 155.909 50.1189 155.342 49.7727C154.775 49.4168 154.323 48.9263 153.986 48.3012C153.659 47.6665 153.495 46.95 153.495 46.1518ZM160.002 46.1806C160.002 45.6324 159.886 45.1564 159.655 44.7524C159.434 44.3485 159.141 44.0408 158.775 43.8292C158.41 43.6176 158.016 43.5118 157.592 43.5118C157.169 43.5118 156.775 43.6176 156.409 43.8292C156.044 44.0311 155.746 44.3341 155.515 44.738C155.294 45.1323 155.183 45.6036 155.183 46.1518C155.183 46.6999 155.294 47.1808 155.515 47.5943C155.746 48.0079 156.044 48.3253 156.409 48.5465C156.785 48.758 157.179 48.8638 157.592 48.8638C158.016 48.8638 158.41 48.758 158.775 48.5465C159.141 48.3349 159.434 48.0271 159.655 47.6232C159.886 47.2097 160.002 46.7288 160.002 46.1806ZM165.465 43.3675C165.706 42.9636 166.023 42.6511 166.417 42.4299C166.821 42.199 167.297 42.0836 167.845 42.0836V43.7859H167.427C166.783 43.7859 166.292 43.9494 165.956 44.2764C165.629 44.6034 165.465 45.1708 165.465 45.9786V50.1622H163.821V42.2135H165.465V43.3675ZM176.642 45.9931C176.642 46.2912 176.623 46.5605 176.585 46.8009H170.511C170.559 47.4357 170.795 47.9454 171.218 48.3301C171.641 48.7148 172.161 48.9071 172.776 48.9071C173.661 48.9071 174.286 48.5368 174.651 47.7963H176.426C176.185 48.5272 175.748 49.1283 175.113 49.5996C174.488 50.0612 173.709 50.292 172.776 50.292C172.016 50.292 171.333 50.1237 170.728 49.7871C170.131 49.4409 169.66 48.96 169.314 48.3445C168.977 47.7194 168.809 46.9981 168.809 46.1806C168.809 45.3631 168.972 44.6466 169.299 44.0311C169.636 43.406 170.102 42.9251 170.699 42.5885C171.305 42.2519 171.997 42.0836 172.776 42.0836C173.526 42.0836 174.195 42.2471 174.781 42.5741C175.368 42.9011 175.825 43.3627 176.152 43.959C176.479 44.5457 176.642 45.2237 176.642 45.9931ZM174.926 45.4737C174.916 44.8678 174.7 44.3822 174.276 44.0167C173.853 43.6513 173.329 43.4685 172.704 43.4685C172.137 43.4685 171.651 43.6513 171.247 44.0167C170.843 44.3726 170.603 44.8582 170.526 45.4737H174.926Z" fill="white"/>
</svg>
